<svg xmlns="http://www.w3.org/2000/svg" width="319.579" height="316.671" viewBox="0 0 319.579 316.671">
  <g id="Audio_Cutter" data-name="Audio Cutter" transform="translate(1010.253 -177.184)">
    <path id="Path_7" data-name="Path 7" d="M-850.06,177.247c32.318,0,64.637-.064,96.955.019a62.115,62.115,0,0,1,60.9,48.974c1.28,5.9,1.228,12.124,1.4,18.21.223,7.729.113,15.469.029,23.2-.067,6.165-3.769,10.032-9.262,9.911-5.24-.116-8.84-4.092-8.874-9.972-.052-8.858-.008-17.716-.017-26.574-.023-25.346-17.657-44-43.012-45.494-1-.059-1.995-.084-2.993-.084q-94.708-.006-189.417.045c-19.313.04-34.049,8.407-43.25,25.685a39.865,39.865,0,0,0-4.35,19.124q.057,60.259.023,120.518c.008,22.308,16.769,41.6,39.054,43.86,11.125,1.127,22.42.551,33.636.817,6.884.164,11.194,6.212,8.808,12.31-1.226,3.134-3.614,5.615-6.9,5.59-15.291-.119-30.829,2.339-45.785-2.175-25.26-7.624-41.389-24.1-46.379-50.49a54.692,54.692,0,0,1-.595-10.064c-.038-39.923.422-79.852-.16-119.767-.5-34.073,28.477-63.366,63.607-63.6C-914.448,177.078-882.253,177.247-850.06,177.247Z"/>
    <path id="Path_8" data-name="Path 8" d="M-825.877,418.724l-42.857-25.841c-1.067-.644-2.155-1.257-3.2-1.94-4.9-3.211-6.267-8.344-3.463-12.879,2.686-4.344,7.917-5.543,12.789-2.756,4.542,2.6,8.983,5.376,13.466,8.079,12.7,7.658,25.432,15.269,38.074,23.025a4.651,4.651,0,0,0,5.685.01q21.194-13,42.592-25.666c2.273-1.346,2.841-2.8,2.7-5.353-1.07-18.591,13.492-34.5,31.82-34.966a33.394,33.394,0,0,1,34.6,33.183,33.41,33.41,0,0,1-34.055,33.375c-9.6-.222-17.534-4.263-24.3-11.471q-9.639,5.8-19.166,11.538c-6.285,3.792-12.563,7.6-19.289,11.665l36.462,22.01c2.3-2.192,4.3-4.41,6.606-6.255a32.8,32.8,0,0,1,41.157.074,33.375,33.375,0,0,1,9.556,39.837,33.288,33.288,0,0,1-37.06,18.771,32.877,32.877,0,0,1-26.35-31.232c-.062-2.677-.817-4.162-3.17-5.551q-21.252-12.543-42.277-25.464a4.362,4.362,0,0,0-5.326.018q-25.218,15.381-50.609,30.476a14.792,14.792,0,0,1-7.322,2.08c-3.9-.045-6.933-3.2-7.795-6.972a8.977,8.977,0,0,1,4.168-9.663c5.369-3.4,10.86-6.607,16.3-9.89C-846.232,430.99-836.32,425.019-825.877,418.724Zm113.85-44.7a15.045,15.045,0,0,0-14.95-15.417,15.2,15.2,0,0,0-15.081,14.97,15.156,15.156,0,0,0,14.818,15.215A15.051,15.051,0,0,0-712.027,374.019Zm.007,86.585A15.037,15.037,0,0,0-726.9,445.5a15.168,15.168,0,0,0-15.153,14.88,15.2,15.2,0,0,0,15.119,15.3A15.059,15.059,0,0,0-712.02,460.6Z"/>
    <g id="Group_4" data-name="Group 4">
      <path id="Path_9" data-name="Path 9" d="M-903.99,373.465c-2.151-.572-4.361-.984-6.445-1.743a26.789,26.789,0,0,1-17.453-27.352,26.9,26.9,0,0,1,21.589-24.1,26.284,26.284,0,0,1,21.831,5.289c.3.237.612.469,1.185.909v-1.967q0-38.859-.031-77.717c0-1.358.293-1.966,1.711-2.323q47.4-11.943,94.776-23.987c.431-.109.872-.178,1.457-.3v1.533q0,51.286-.006,102.574c-.006,12.157-6.9,22-18.159,26.05-15.411,5.546-32.982-5.064-35.178-21.243-1.952-14.382,6.525-27,20.6-30.3,8.142-1.911,15.625-.091,22.318,4.931.358.269.7.555,1.057.828.033.026.091.02.253.052V260.841q-5.719,1.451-11.406,2.894-33.328,8.444-66.667,16.853c-1.385.347-1.763.878-1.76,2.283q.077,31.521.028,63.042c-.012,10.492-4.533,18.5-13.493,23.958a25.087,25.087,0,0,1-9.4,3.287,9.587,9.587,0,0,0-1.123.307Zm29.785-101.7,79.783-20.227V231.7l-79.783,20.227Zm-9.085,74.848a17.778,17.778,0,0,0-17.749-17.826A17.825,17.825,0,0,0-918.964,346.6,17.909,17.909,0,0,0-901.2,364.464,17.861,17.861,0,0,0-883.29,346.608Zm70.907-3.816a17.916,17.916,0,0,0,18-17.319,17.892,17.892,0,0,0-17.674-18.4A17.873,17.873,0,0,0-830.033,324.4,17.824,17.824,0,0,0-812.383,342.792Z" stroke="#000" stroke-miterlimit="10" stroke-width="4"/>
    </g>
  </g>
</svg>
