<svg xmlns="http://www.w3.org/2000/svg" width="342.504" height="318.783" viewBox="0 0 342.504 318.783">
  <g id="Audio_Merge" data-name="Audio Merge" transform="translate(1997.031 -177.272)">
    <path id="Path_1" data-name="Path 1" d="M-1703.717,416.545c.788.414,1.238.662,1.7.891,24.451,12.169,39.246,31.637,44.052,58.553a82.665,82.665,0,0,1,.931,11.311c.165,4.256-2.631,7.256-6.465,7.255-3.771,0-6.336-2.875-6.515-7.052-1.17-27.419-14.2-47.082-38.905-58.91a56.512,56.512,0,0,0-24.367-5.459c-27.275-.105-54.551-.053-81.826-.058-.378,0-.757.041-1.448.081.643.7,1.063,1.191,1.518,1.647,4.254,4.265,8.529,8.508,12.767,12.789,2.928,2.956,3.059,6.9.379,9.569s-6.619,2.526-9.566-.413q-12.653-12.616-25.268-25.271c-3.027-3.04-3.014-6.792.043-9.862q12.606-12.662,25.268-25.269c2.94-2.928,6.905-3.027,9.565-.323s2.488,6.6-.464,9.568c-4.674,4.7-9.378,9.372-14.307,14.292.779.085,1.266.184,1.754.184,26.8.006,53.6.125,80.405-.031a64.839,64.839,0,0,0,63.076-51.742,88.307,88.307,0,0,0,1.345-12.483c.263-4.315,2.767-7.242,6.592-7.217s6.607,3.024,6.431,7.3c-1.316,31.817-16.283,54.933-44.491,69.565C-1702.112,415.77-1702.722,416.056-1703.717,416.545Z" stroke="#000" stroke-miterlimit="10" stroke-width="3"/>
    <path id="Path_2" data-name="Path 2" d="M-1827.568,177.4c36.379,0,72.763-.359,109.135.13,22.71.306,40.883,10.374,53.957,29.054a53.671,53.671,0,0,1,9.912,31.225c.022,8.827.069,17.655,0,26.482-.051,6.583-4.008,10.939-9.716,10.924-5.687-.014-9.693-4.464-9.733-10.945-.049-7.757-.266-15.524.035-23.27.893-23.06-17.795-40.625-39.082-43.508a62.93,62.93,0,0,0-8.4-.6q-106.128-.049-212.255.007c-17.978.021-31.969,7.413-39.637,24.125a43.743,43.743,0,0,0-3.844,17.391c-.323,40.79-.287,81.584-.127,122.376.091,23.244,17.428,40.761,40.7,41.452,8.285.246,16.583.067,24.875.094a28.83,28.83,0,0,1,3.6.133c5.315.689,8.951,4.593,9.014,9.6s-3.505,9.662-8.774,9.716c-14.662.149-29.442,1.773-43.921-1.98-25.742-6.673-44.54-29.451-44.83-55.991-.467-42.793-.549-85.6.015-128.391.422-31.978,27.21-57.707,59.532-57.953C-1900.595,177.186-1864.08,177.4-1827.568,177.4Z"/>
    <g id="Group_1" data-name="Group 1">
      <path id="Path_3" data-name="Path 3" d="M-1882.941,386.982c-2.307-.613-4.677-1.054-6.911-1.868a28.725,28.725,0,0,1-18.714-29.328,28.845,28.845,0,0,1,23.148-25.835,28.185,28.185,0,0,1,23.408,5.671c.327.253.656.5,1.271.974v-2.108q0-41.666-.033-83.331c0-1.456.313-2.108,1.834-2.491q50.824-12.806,101.622-25.719c.462-.117.935-.192,1.562-.318v1.643q0,54.993-.006,109.984c-.007,13.034-7.4,23.585-19.471,27.931-16.524,5.947-35.364-5.43-37.719-22.777-2.092-15.421,7-28.952,22.091-32.494,8.731-2.049,16.754-.1,23.93,5.287.384.288.754.6,1.134.888.036.028.1.022.271.055V266.224q-6.132,1.555-12.23,3.1-35.736,9.056-71.482,18.071c-1.486.373-1.89.942-1.887,2.448q.081,33.8.029,67.6c-.013,11.249-4.86,19.836-14.467,25.688a26.9,26.9,0,0,1-10.075,3.525,10.583,10.583,0,0,0-1.2.328Zm31.936-109.051,85.546-21.687V234.981l-85.546,21.688Zm-9.741,80.255a19.063,19.063,0,0,0-19.032-19.114A19.112,19.112,0,0,0-1899,358.181a19.2,19.2,0,0,0,19.053,19.151A19.151,19.151,0,0,0-1860.746,358.186Zm76.028-4.092a19.208,19.208,0,0,0,19.3-18.569,19.183,19.183,0,0,0-18.95-19.732,19.164,19.164,0,0,0-19.277,18.578A19.112,19.112,0,0,0-1784.718,354.094Z" stroke="#000" stroke-miterlimit="10" stroke-width="4"/>
    </g>
  </g>
</svg>
