<svg xmlns="http://www.w3.org/2000/svg" width="14.976" height="14.802" viewBox="0 0 14.976 14.802">
  <path id="Comment" d="M7.488,2.25C3.352,2.25,0,5.326,0,9.122a6.5,6.5,0,0,0,1.667,4.318,8.669,8.669,0,0,1-1.6,3.165.289.289,0,0,0-.044.287.23.23,0,0,0,.214.159,6.273,6.273,0,0,0,4.113-1.7,8.019,8.019,0,0,0,3.141.641c4.136,0,7.488-3.076,7.488-6.872S11.624,2.25,7.488,2.25ZM3.744,10.18a1,1,0,0,1-.936-1.057,1,1,0,0,1,.936-1.057A1,1,0,0,1,4.68,9.122,1,1,0,0,1,3.744,10.18Zm3.744,0a1,1,0,0,1-.936-1.057,1,1,0,0,1,.936-1.057,1,1,0,0,1,.936,1.057A1,1,0,0,1,7.488,10.18Zm3.744,0A1,1,0,0,1,10.3,9.122a1,1,0,0,1,.936-1.057,1,1,0,0,1,.936,1.057A1,1,0,0,1,11.232,10.18Z" transform="translate(0 -2.25)" fill="#bbb"/>
</svg>
