<svg xmlns="http://www.w3.org/2000/svg" xmlns:xlink="http://www.w3.org/1999/xlink" width="90.445" height="74.218" viewBox="0 0 90.445 74.218">
  <defs>
    <linearGradient id="linear-gradient" x1="-5.352" y1="1.001" x2="-5.352" gradientUnits="objectBoundingBox">
      <stop offset="0" stop-color="gray" stop-opacity="0.251"/>
      <stop offset="0.535" stop-color="gray" stop-opacity="0.122"/>
      <stop offset="1" stop-color="gray" stop-opacity="0.102"/>
    </linearGradient>
  </defs>
  <g id="Downloaded_Videos" transform="translate(0.424 0)">
    <path id="Path_68481" data-name="Path 68481" d="M462.157,102.984v55.9a2.511,2.511,0,0,1-2.511,2.511H436.952a2.511,2.511,0,0,1-2.512-2.511v-55.9a2.511,2.511,0,0,1,2.512-2.512h3.4v.436a2.069,2.069,0,0,0,2.068,2.068h11.541a2.068,2.068,0,0,0,2.068-2.068v-.436h3.62a2.511,2.511,0,0,1,2.512,2.512Z" transform="translate(-404.849 -95.281)" fill="#fff"/>
    <path id="Path_68482" data-name="Path 68482" d="M774.231,223.308h.225a.21.21,0,0,1,.21.21v7.371a.21.21,0,0,1-.21.21h-.225" transform="translate(-713.505 -206.862)" fill="none" stroke="#3f3d56" stroke-width="1"/>
    <path id="Path_68483" data-name="Path 68483" d="M426.149,159.266h-.163a.138.138,0,0,1-.138-.138v-2.289a.138.138,0,0,1,.138-.138h.163" transform="translate(-397.045 -146.359)" fill="none" stroke="#3f3d56" stroke-width="1"/>
    <path id="Path_68484" data-name="Path 68484" d="M425.933,212.409h-.139a.155.155,0,0,1-.155-.155V208.1a.155.155,0,0,1,.155-.155h.164" transform="translate(-396.855 -192.906)" fill="none" stroke="#3f3d56" stroke-width="1"/>
    <path id="Path_68485" data-name="Path 68485" d="M426.028,278.212h-.137a.148.148,0,0,1-.148-.148v-4.207a.148.148,0,0,1,.148-.148h.137" transform="translate(-396.95 -252.645)" fill="none" stroke="#3f3d56" stroke-width="1"/>
    <rect id="Rectangle_6356" data-name="Rectangle 6356" width="4.416" height="0.897" rx="0.448" transform="translate(41.681 4.062)" fill="#f2f2f2"/>
    <circle id="Ellipse_17612" data-name="Ellipse 17612" cx="0.509" cy="0.509" r="0.509" transform="translate(46.765 4.001)" fill="#f2f2f2"/>
    <rect id="Rectangle_6357" data-name="Rectangle 6357" width="4.416" height="0.897" rx="0.448" transform="translate(41.865 3.787)" fill="none" stroke="#3f3d56" stroke-width="0.5"/>
    <circle id="Ellipse_17613" data-name="Ellipse 17613" cx="0.509" cy="0.509" r="0.509" transform="translate(46.948 3.726)" fill="none" stroke="#3f3d56" stroke-width="0.5"/>
    <path id="Path_68486" data-name="Path 68486" d="M478.157,84.984v55.9a2.511,2.511,0,0,1-2.511,2.511H452.952a2.511,2.511,0,0,1-2.512-2.511v-55.9a2.511,2.511,0,0,1,2.512-2.512h3.4v.436a2.069,2.069,0,0,0,2.068,2.068h11.541a2.068,2.068,0,0,0,2.068-2.068v-.436h3.62a2.511,2.511,0,0,1,2.512,2.512Z" transform="translate(-419.383 -78.931)" fill="none" stroke="#3f3d56" stroke-width="1"/>
    <rect id="Rectangle_6360" data-name="Rectangle 6360" width="2.841" height="0.367" transform="translate(31.849 10.166)" fill="none" stroke="#3f3d56" stroke-width="0.3"/>
    <path id="Path_68487" data-name="Path 68487" d="M725.719,139.358h-.084l-.032-.026a.7.7,0,0,0,.163-.448.681.681,0,1,0-.679.686.705.705,0,0,0,.447-.163l.031.026v.084l.526.527.158-.158Zm-.631,0a.472.472,0,1,1,.336-.139A.475.475,0,0,1,725.088,139.358Z" transform="translate(-671.244 -129.559)" fill="none" stroke="#3f3d56" stroke-width="0.5"/>
    <path id="Path_68488" data-name="Path 68488" d="M906.665,161a3.569,3.569,0,0,1,3.564-3.383c.108,0,.216.006.322.015a4.742,4.742,0,0,1,8.2,0c.089-.007.179-.011.271-.011A3.569,3.569,0,0,1,922.582,161" transform="translate(-833.804 -145.065)" fill="#f2f2f2"/>
    <path id="Path_68489" data-name="Path 68489" d="M914.778,158.008a3.569,3.569,0,0,1,3.564-3.382c.109,0,.216.006.322.015a4.742,4.742,0,0,1,8.2,0c.089-.007.179-.011.271-.011a3.569,3.569,0,0,1,3.564,3.382" transform="translate(-841.174 -142.344)" fill="none" stroke="#3f3d56" stroke-width="1"/>
    <path id="Path_68490" data-name="Path 68490" d="M802.665,382a3.569,3.569,0,0,1,3.564-3.382c.108,0,.216.006.322.015a4.742,4.742,0,0,1,8.2,0c.089-.007.179-.011.271-.011A3.569,3.569,0,0,1,818.582,382" transform="translate(-739.334 -345.815)" fill="#f2f2f2"/>
    <path id="Path_68491" data-name="Path 68491" d="M810.778,379.008a3.569,3.569,0,0,1,3.564-3.382c.109,0,.216.006.322.015a4.742,4.742,0,0,1,8.2,0c.089-.007.179-.011.271-.011a3.569,3.569,0,0,1,3.564,3.382" transform="translate(-746.703 -343.094)" fill="none" stroke="#3f3d56" stroke-width="1"/>
    <path id="Path_68492" data-name="Path 68492" d="M151.665,58a3.569,3.569,0,0,1,3.564-3.383c.108,0,.216.006.322.015a4.742,4.742,0,0,1,8.2,0c.089-.007.179-.011.271-.011A3.569,3.569,0,0,1,167.582,58" transform="translate(-147.985 -51.503)" fill="#f2f2f2"/>
    <path id="Path_68493" data-name="Path 68493" d="M159.778,55.008a3.569,3.569,0,0,1,3.564-3.383c.108,0,.216.006.322.015a4.742,4.742,0,0,1,8.2,0c.089-.007.179-.011.271-.011a3.569,3.569,0,0,1,3.564,3.382" transform="translate(-155.355 -48.782)" fill="none" stroke="#3f3d56" stroke-width="1"/>
    <rect id="Rectangle_6361" data-name="Rectangle 6361" width="21.808" height="12.095" rx="6.048" transform="translate(31.987 18.231)" fill="#6c63ff"/>
    <rect id="Rectangle_6362" data-name="Rectangle 6362" width="21.808" height="12.095" rx="6.048" transform="translate(33.178 15.94)" fill="none" stroke="#3f3d56" stroke-width="1"/>
    <path id="Path_68494" data-name="Path 68494" d="M553.724,284.16l1.923,1.982a.437.437,0,0,0,.322.129h.006a.437.437,0,0,0,.322-.129l1.923-1.982a.424.424,0,0,0,0-.62.475.475,0,0,0-.649,0l-1.14,1.191v-3.072a.46.46,0,0,0-.919,0v3.072l-1.14-1.191a.475.475,0,0,0-.649,0,.425.425,0,0,0,0,.62Z" transform="translate(-513.081 -259.467)" fill="#fff"/>
    <rect id="Rectangle_6363" data-name="Rectangle 6363" width="21.808" height="12.095" rx="6.048" transform="translate(56.177 51.035) rotate(180)" fill="#e085d3"/>
    <rect id="Rectangle_6364" data-name="Rectangle 6364" width="21.808" height="12.095" rx="6.048" transform="translate(54.986 48.744) rotate(180)" fill="none" stroke="#3f3d56" stroke-width="1"/>
    <path id="Path_68495" data-name="Path 68495" d="M584.22,510.16a.424.424,0,0,0,0-.62.475.475,0,0,0-.649,0l-1.14,1.191v-3.072a.46.46,0,0,0-.919,0v3.072l-1.14-1.191a.475.475,0,0,0-.649,0,.424.424,0,0,0,0,.62l1.923,1.982a.437.437,0,0,0,.322.129h.006a.437.437,0,0,0,.322-.129Z" transform="translate(-536.699 -464.758)" fill="#fff"/>
    <path id="Path_68496" data-name="Path 68496" d="M327.645,813.88h0l-.078.041Z" transform="translate(-307.769 -743.319)" fill="url(#linear-gradient)"/>
    <path id="Path_68497" data-name="Path 68497" d="M205.577,569.85c-.687,1.977.115,5.185.487,6.617a20.048,20.048,0,0,1,.487,3.151,6.637,6.637,0,0,0,2.521-.058l-.6-2.95c.43-1.748,0-6.417,0-6.417a11.129,11.129,0,0,0,1.06-4.554c.085-2.707.752-3.582.773-3.609h0c1.375.716,3.122,8.393,3.122,8.393a17.95,17.95,0,0,0,.6,6.273,7.767,7.767,0,0,1,.43,3.065.943.943,0,0,0,.779.15,5.346,5.346,0,0,0,1.8-.837s-.315-8.364-.544-8.679a6.5,6.5,0,0,1,0-2.12l-.372-2.922s.057-4.956-.487-5.815a5.911,5.911,0,0,1-.6-2.389c0-.054,0-.084,0-.084l-.829-.993s-8.021-.6-8.622,0a1.716,1.716,0,0,0-.293.906,20.548,20.548,0,0,0,.024,3.419s.241,1.576.584,3.18a6.965,6.965,0,0,1,0,2.922A8.738,8.738,0,0,1,205.577,569.85Z" transform="translate(-196.629 -508.892)" fill="#575a89"/>
    <path id="Path_68498" data-name="Path 68498" d="M213.051,811.049c.358.473,2.463.272,2.822.125.219-.09.2-.5.143-.926-.037-.27-.092-.545-.115-.746a6.864,6.864,0,0,1,.172-1.561s-.473.5-.587,0a.547.547,0,0,0-.409-.389,1.07,1.07,0,0,0-.744.047c-.372.161-.993.505-.882.971a2.715,2.715,0,0,1-.4,1.591.714.714,0,0,0-.1.18.688.688,0,0,0,.1.708Z" transform="translate(-203.602 -737.529)" fill="#cbceda"/>
    <path id="Path_68499" data-name="Path 68499" d="M213.051,838.222c.358.473,2.463.272,2.822.125.219-.09.2-.5.143-.926a2.439,2.439,0,0,1-1.251.134,3.575,3.575,0,0,0-.45-.014,10.52,10.52,0,0,1-1.367-.027A.688.688,0,0,0,213.051,838.222Z" transform="translate(-203.602 -764.703)" opacity="0.1"/>
    <path id="Path_68500" data-name="Path 68500" d="M263.857,626.671a17.95,17.95,0,0,0,.6,6.273,7.766,7.766,0,0,1,.43,3.065.943.943,0,0,0,.779.15c-.173-1.208-.909-6.414-1.381-10.526a17.214,17.214,0,0,0-3.051-7.906l-.5.551C262.109,618.994,263.857,626.671,263.857,626.671Z" transform="translate(-247.06 -565.139)" opacity="0.1"/>
    <path id="Path_68501" data-name="Path 68501" d="M224,352.711l.35,1.719,1.713,2.879,2.113-.9s2.871-3.008,1.067-3.437a1.588,1.588,0,0,1-.6-.267,1.239,1.239,0,0,1-.467-1.036,3.174,3.174,0,0,1,.293-1.232l-3.7-1.16a5.9,5.9,0,0,1,.265,1.5,1.973,1.973,0,0,1-.652,1.738A1.11,1.11,0,0,1,224,352.711Z" transform="translate(-213.696 -321.285)" fill="#fbbebe"/>
    <path id="Path_68502" data-name="Path 68502" d="M232.445,349.273a5.9,5.9,0,0,1,.265,1.5,2.848,2.848,0,0,0,.215.229,2.924,2.924,0,0,0,2.922.667,3.174,3.174,0,0,1,.293-1.232Z" transform="translate(-221.363 -321.284)" opacity="0.1"/>
    <path id="Path_68503" data-name="Path 68503" d="M227.821,315.15a2.911,2.911,0,1,0,.853-2.069A2.922,2.922,0,0,0,227.821,315.15Z" transform="translate(-217.163 -287.634)" fill="#fbbebe"/>
    <path id="Path_68504" data-name="Path 68504" d="M224,384.784l.35,1.719,1.713,2.879,2.113-.9s2.871-3.008,1.067-3.437a1.589,1.589,0,0,1-.6-.267c.326.9-1.019,2.759-1.019,2.759-.156.23-.516.086-.516.086-.866-.131-2.462-2.623-2.722-3.038A1.109,1.109,0,0,1,224,384.784Z" transform="translate(-213.696 -353.358)" opacity="0.1"/>
    <path id="Path_68505" data-name="Path 68505" d="M205.956,556.979a18.988,18.988,0,0,0,4.389.583c1.174-.172,3.458-.286,3.458-.286a6.743,6.743,0,0,0,1.9-.126c0-.054,0-.084,0-.084l-.829-.993s-8.021-.6-8.622,0A1.716,1.716,0,0,0,205.956,556.979Z" transform="translate(-197.302 -508.892)" opacity="0.1"/>
    <path id="Path_68506" data-name="Path 68506" d="M193.018,387.891s1.511-2.094.942-2.909l2.553,1.047s1.537-.186,2.091,2.107a3.966,3.966,0,0,1,.095,1.164,3.473,3.473,0,0,0,.421,1.742c.63,1.26.487,4.154-.8,4.44a3.97,3.97,0,0,1-1.747.143s.172,5.242.917,5.844-1.9.458-1.9.458-2.283.115-3.458.286a20.042,20.042,0,0,1-4.469-.6s.487-2.206.659-3.609.573-4.392.573-4.392l-2.922-3.958s-.516-2.392,1.289-3.452a20.513,20.513,0,0,1,2.484-1.32s1.813,2.953,2.758,3.1C192.5,387.977,192.861,388.121,193.018,387.891Z" transform="translate(-179.086 -353.629)" fill="#3f3d56"/>
    <path id="Path_68507" data-name="Path 68507" d="M290.753,426.8a4.3,4.3,0,0,1-.143,1.318c-.172.372-.8,2.435-.8,2.435h1.432s-.773-.831-.716-1.232S290.753,426.8,290.753,426.8Z" transform="translate(-273.47 -391.707)" opacity="0.1"/>
    <path id="Path_68508" data-name="Path 68508" d="M250.072,464.837s3.163-.773,3.458-1.432,1.107-2.133,1.107-2.133l-.334-.45-1.539,1.208a10.01,10.01,0,0,1-2.693,1.6C249.213,463.777,250.072,464.837,250.072,464.837Z" transform="translate(-237.028 -422.612)" fill="#fbbebe"/>
    <path id="Path_68509" data-name="Path 68509" d="M250.072,464.837s3.163-.773,3.458-1.432,1.107-2.133,1.107-2.133l-.334-.45-1.539,1.208a10.01,10.01,0,0,1-2.693,1.6C249.213,463.777,250.072,464.837,250.072,464.837Z" transform="translate(-237.028 -422.612)" opacity="0.05"/>
    <path id="Path_68510" data-name="Path 68510" d="M224,463.881V465.6h.276a8.028,8.028,0,0,1,3.9,1.008l.517.287.139.077.888-2-.831-.745-.043,0a4.963,4.963,0,0,1-1.454-.033,2.366,2.366,0,0,0-1.835-.235c-.513.131-.951.706-1.449.527Z" transform="translate(-213.696 -425.379)" fill="#fbbebe"/>
    <path id="Path_68511" data-name="Path 68511" d="M188.158,410.6l-.573.645v1.561s.487,4.927,2.034,5.471,4.308-.315,4.308-.315.713-1.891.38-2.005-2.949-.805-2.949-.805.037-2.89-.536-3.749c0,0,.372-2.693-.917-2.75S188.158,410.6,188.158,410.6Z" transform="translate(-180.614 -375.226)" opacity="0.1"/>
    <path id="Path_68512" data-name="Path 68512" d="M187.22,410.6l-.573.645v1.561s.487,4.927,2.034,5.471,4.308-.315,4.308-.315.713-1.891.38-2.005-2.949-.805-2.949-.805.037-2.89-.536-3.749c0,0,.372-2.693-.917-2.75S187.22,410.6,187.22,410.6Z" transform="translate(-179.762 -375.226)" fill="#3f3d56"/>
    <path id="Path_68513" data-name="Path 68513" d="M228.62,316.388a1.143,1.143,0,0,1,.065-.558.431.431,0,0,1,.454-.263c.245.057.351.376.591.453a.468.468,0,0,0,.52-.269,1.364,1.364,0,0,0,.1-.623q0-.359,0-.718a1.189,1.189,0,0,1,.169-.746,1.317,1.317,0,0,1,.982-.356.831.831,0,0,1,.561.226.725.725,0,0,0,.59.21.51.51,0,0,0,.411-.356.063.063,0,0,0,0-.009,2.922,2.922,0,1,0-4.346,3.878A7.894,7.894,0,0,1,228.62,316.388Z" transform="translate(-217.161 -287.631)" opacity="0.1"/>
    <path id="Path_68514" data-name="Path 68514" d="M217.642,296a.51.51,0,0,0,.411-.356c.024-.092.018-.191.045-.283.067-.225.307-.342.468-.513a1.15,1.15,0,0,0,.073-1.317.949.949,0,0,0-.916-.547c-.232.04-.432.205-.667.22a1.4,1.4,0,0,1-.639-.206,2.408,2.408,0,0,0-1.583-.141.913.913,0,0,0-.436.22,3.712,3.712,0,0,0-.232.327,1.818,1.818,0,0,1-1.171.484c-.426.077-.908.245-1.047.655a1.684,1.684,0,0,0,.051.848.249.249,0,0,1-.011.175c-.066.11-.233.064-.358.09-.242.051-.3.362-.312.609q-.015.423-.023.847a1.1,1.1,0,0,0,.025.314,1.11,1.11,0,0,0,.244.394l.946,1.136a2.431,2.431,0,0,1,.78,1.741.4.4,0,0,0,.5-.29,1.3,1.3,0,0,0-.032-.645,7.93,7.93,0,0,1-.15-1.119,1.139,1.139,0,0,1,.066-.558.431.431,0,0,1,.454-.263c.245.057.351.376.591.453a.468.468,0,0,0,.52-.268,1.366,1.366,0,0,0,.1-.623l0-.718a1.192,1.192,0,0,1,.169-.747,1.319,1.319,0,0,1,.982-.356.832.832,0,0,1,.56.226A.726.726,0,0,0,217.642,296Z" transform="translate(-202.148 -269.971)" fill="#3f3d56"/>
    <path id="Path_68515" data-name="Path 68515" d="M262.965,426.019l-.9,3.685S261.361,429.7,262.965,426.019Z" transform="translate(-248.131 -390.998)" opacity="0.1"/>
    <path id="Path_68516" data-name="Path 68516" d="M239.947,419.3a5.9,5.9,0,0,1,.716,3.912l-.219.016S240.835,422.306,239.947,419.3Z" transform="translate(-228.178 -384.893)" opacity="0.1"/>
    <path id="Path_68517" data-name="Path 68517" d="M216.485,537.076s-1.442-.477-1.547.63C214.938,537.706,215.21,536.947,216.485,537.076Z" transform="translate(-205.461 -491.786)" opacity="0.1"/>
    <path id="Path_68518" data-name="Path 68518" d="M275.032,468.69s.286,2.005-.229,2.807a6.289,6.289,0,0,0,2.521.344l.172-3.151Z" transform="translate(-259.84 -429.759)" opacity="0.1"/>
    <path id="Path_68519" data-name="Path 68519" d="M275.163,470.421l.139.077.888-2-.831-.745h-.043v0A6.235,6.235,0,0,1,275.163,470.421Z" transform="translate(-260.167 -428.909)" opacity="0.1"/>
    <path id="Path_68520" data-name="Path 68520" d="M275.032,467.752s.286,2.005-.229,2.807a6.292,6.292,0,0,0,2.521.344l1-3.151Z" transform="translate(-259.84 -428.907)" fill="#3f3d56"/>
    <path id="Path_68521" data-name="Path 68521" d="M302.3,810.776a.649.649,0,0,0,.556.567c.778.116,2.652-.229,3.125,0,.6.287,2.979.086,3.094-.2a.452.452,0,0,0-.041-.345.914.914,0,0,0-.384-.413.95.95,0,0,0-.172-.076,3.776,3.776,0,0,1-1.522-.8,9.712,9.712,0,0,1-1.355-1.421.688.688,0,0,0-.551-.343c-.251-.011-.53.115-.645.665,0,0-1.374.784-1.746.1a7.2,7.2,0,0,1-.285,1.986v0A.382.382,0,0,0,302.3,810.776Z" transform="translate(-284.816 -737.743)" fill="#cbceda"/>
    <path id="Path_68522" data-name="Path 68522" d="M302.3,836.949a.649.649,0,0,0,.556.567c.778.116,2.652-.229,3.125,0,.6.287,2.979.086,3.094-.2a.452.452,0,0,0-.041-.345.914.914,0,0,0-.384-.413c-.388.257-1.248.509-3.141.213-1.805-.282-2.7.083-3.135-.1v0A.381.381,0,0,0,302.3,836.949Z" transform="translate(-284.816 -763.916)" opacity="0.1"/>
    <g id="Group_16522" data-name="Group 16522" transform="translate(9.143 24.169)" opacity="0.1">
      <path id="Path_68523" data-name="Path 68523" d="M218.12,315.086l0-.014a2.681,2.681,0,0,1-.088-.65,4.182,4.182,0,0,0,.088.522A.31.31,0,0,1,218.12,315.086Z" transform="translate(-217.41 -313.796)"/>
      <path id="Path_68524" data-name="Path 68524" d="M236.552,311.563a.837.837,0,0,0-.07.327.987.987,0,0,1,.07-.456.431.431,0,0,1,.454-.263c.245.057.351.376.591.453a.468.468,0,0,0,.52-.268,1.366,1.366,0,0,0,.1-.623q0-.359,0-.718a1.192,1.192,0,0,1,.169-.746,1.319,1.319,0,0,1,.983-.356.832.832,0,0,1,.56.226.725.725,0,0,0,.591.21.51.51,0,0,0,.411-.356c.024-.092.018-.191.045-.283.067-.225.307-.342.468-.513a.938.938,0,0,0,.242-.605.977.977,0,0,1-.242.734c-.161.171-.4.288-.468.513-.027.092-.021.19-.045.283a.51.51,0,0,1-.411.356.725.725,0,0,1-.591-.21.832.832,0,0,0-.56-.226,1.319,1.319,0,0,0-.983.356,1.192,1.192,0,0,0-.169.747q0,.359,0,.718a1.366,1.366,0,0,1-.1.623.468.468,0,0,1-.52.268c-.24-.076-.346-.4-.591-.453A.431.431,0,0,0,236.552,311.563Z" transform="translate(-234.17 -307.591)"/>
      <path id="Path_68525" data-name="Path 68525" d="M211.32,340.489a1.111,1.111,0,0,0,.244.394l.946,1.136a2.575,2.575,0,0,1,.789,1.643,2.794,2.794,0,0,0-.789-1.514l-.946-1.136a1.111,1.111,0,0,1-.244-.394,1.094,1.094,0,0,1-.025-.314A.778.778,0,0,0,211.32,340.489Z" transform="translate(-211.293 -337.306)"/>
      <path id="Path_68526" data-name="Path 68526" d="M233.588,373.344a.673.673,0,0,0,.028-.153.767.767,0,0,1-.028.282.4.4,0,0,1-.5.29,1.257,1.257,0,0,0,.01-.125A.407.407,0,0,0,233.588,373.344Z" transform="translate(-231.091 -367.179)"/>
    </g>
    <path id="Path_68527" data-name="Path 68527" d="M326.7,814.321s-.3.527-1.384.063" transform="translate(-305.72 -743.72)" opacity="0.1"/>
    <path id="Path_68528" data-name="Path 68528" d="M221.351,814.706a1.656,1.656,0,0,1-2.115.361" transform="translate(-209.365 -744.069)" opacity="0.1"/>
    <path id="Path_68529" data-name="Path 68529" d="M212.6,672.509s.661.413.683.649-.341-.172-.341-.172Z" transform="translate(-203.333 -614.902)" opacity="0.1"/>
    <path id="Path_68530" data-name="Path 68530" d="M209.748,707.074a1.38,1.38,0,0,0,.815.318c.494.022.453.666.13.473A8.118,8.118,0,0,1,209.748,707.074Z" transform="translate(-200.746 -646.3)" opacity="0.1"/>
    <path id="Path_68531" data-name="Path 68531" d="M208.375,711.585s.317,1.559.575,1.258" transform="translate(-199.499 -650.397)" opacity="0.1"/>
    <path id="Path_68532" data-name="Path 68532" d="M112.767,657.76a1.907,1.907,0,1,0,.254-3.657l.048.982-.464-.841a1.9,1.9,0,0,0-.979,1.074,1.87,1.87,0,0,0-.11.516A1.907,1.907,0,0,0,112.767,657.76Z" transform="translate(-111.511 -598.144)" fill="#57b894"/>
    <path id="Path_68533" data-name="Path 68533" d="M146.737,652.9c-.164-.835.546-1.575,1.248-2.056s1.522-.954,1.761-1.77c.344-1.173-.681-2.248-1.479-3.174a11.481,11.481,0,0,1-1.514-2.25,3.1,3.1,0,0,1-.362-1.023,3.532,3.532,0,0,1,.272-1.534q.841-2.479,1.8-4.916" transform="translate(-143.182 -581.895)" fill="none" stroke="#3f3d56" stroke-width="1"/>
    <path id="Path_68534" data-name="Path 68534" d="M113.624,655a1.907,1.907,0,1,0,.254-3.657l.048.982-.464-.841a1.9,1.9,0,0,0-.979,1.074,1.87,1.87,0,0,0-.11.516A1.907,1.907,0,0,0,113.624,655Z" transform="translate(-112.289 -595.638)" fill="none" stroke="#3f3d56" stroke-width="1"/>
    <path id="Path_68535" data-name="Path 68535" d="M146.619,620.019a1.9,1.9,0,0,1,1.373-1.209l.157.933.291-.98a1.907,1.907,0,1,1-1.821,1.256Z" transform="translate(-143.298 -566.081)" fill="#57b894"/>
    <path id="Path_68536" data-name="Path 68536" d="M147.762,616.342a1.905,1.905,0,0,1,1.373-1.209l.157.933.291-.98a1.907,1.907,0,1,1-1.821,1.256Z" transform="translate(-144.336 -562.74)" fill="none" stroke="#3f3d56" stroke-width="1"/>
    <path id="Path_68537" data-name="Path 68537" d="M150.884,705.809a1.907,1.907,0,0,0,1.688-3.392l-.224.753-.159-.944,0,0a1.907,1.907,0,1,0-1.3,3.585Z" transform="translate(-146.134 -641.789)" fill="#57b894"/>
    <path id="Path_68538" data-name="Path 68538" d="M151.874,702.084a1.907,1.907,0,0,0,1.688-3.392l-.224.753-.159-.944,0,0a1.907,1.907,0,1,0-1.3,3.585Z" transform="translate(-147.033 -638.406)" fill="none" stroke="#3f3d56" stroke-width="1"/>
    <path id="Path_68539" data-name="Path 68539" d="M141.39,754.884a1.906,1.906,0,1,0,.367-1.493l.85,1.279-1.161-.679A1.889,1.889,0,0,0,141.39,754.884Z" transform="translate(-138.625 -687.697)" fill="#57b894"/>
    <path id="Path_68540" data-name="Path 68540" d="M142.247,752.127a1.906,1.906,0,1,0,.368-1.493l.85,1.279-1.161-.679A1.889,1.889,0,0,0,142.247,752.127Z" transform="translate(-139.403 -685.193)" fill="none" stroke="#3f3d56" stroke-width="1"/>
    <path id="Path_68541" data-name="Path 68541" d="M121.4,815.979a16.611,16.611,0,0,0,2.19-1.021c.507-.361,2.589-.792,2.714-.213s2.529,2.881.629,2.9-4.415.312-4.921,0S121.4,815.979,121.4,815.979Z" transform="translate(-120.495 -743.848)" fill="#656380"/>
    <path id="Path_68542" data-name="Path 68542" d="M126.97,832.456c-1.9.015-4.415.312-4.921,0-.385-.235-.539-1.077-.591-1.466l-.056,0s.107,1.357.613,1.666,3.021.012,4.921,0c.548,0,.738-.2.727-.489C127.587,832.344,127.378,832.453,126.97,832.456Z" transform="translate(-120.496 -758.864)" opacity="0.2"/>
    <line id="Line_194" data-name="Line 194" x2="24.924" transform="translate(4.657 73.718)" fill="none" stroke="#3f3d56" stroke-width="1"/>
  </g>
</svg>
