<svg xmlns="http://www.w3.org/2000/svg" width="13.002" height="10.402" viewBox="0 0 13.002 10.402">
  <path id="Edit_Profile" d="M4.551,5.2a2.6,2.6,0,1,0-2.6-2.6A2.6,2.6,0,0,0,4.551,5.2Zm1.82.65H6.032a3.537,3.537,0,0,1-2.962,0H2.731A2.731,2.731,0,0,0,0,8.582v.845a.975.975,0,0,0,.975.975H6.56a.976.976,0,0,1-.053-.433l.138-1.237.024-.226.161-.161L8.4,6.776a2.7,2.7,0,0,0-2.03-.924ZM7.292,8.8l-.138,1.239a.323.323,0,0,0,.358.358l1.237-.138,2.8-2.8L10.093,6l-2.8,2.8Zm5.569-3.34-.77-.77a.487.487,0,0,0-.687,0l-.768.768-.083.083L12.011,7l.849-.849a.489.489,0,0,0,0-.689Z" fill="#fff"/>
</svg>
