<svg xmlns="http://www.w3.org/2000/svg" width="13.316" height="8.877" viewBox="0 0 13.316 8.877">
  <path id="Eye" d="M13.236,8.6A7.415,7.415,0,0,0,6.658,4.5,7.416,7.416,0,0,0,.08,8.6a.748.748,0,0,0,0,.675,7.415,7.415,0,0,0,6.578,4.1,7.416,7.416,0,0,0,6.578-4.1A.748.748,0,0,0,13.236,8.6ZM6.658,12.268A3.329,3.329,0,1,1,9.987,8.939,3.329,3.329,0,0,1,6.658,12.268Zm0-5.548a2.2,2.2,0,0,0-.585.088A1.106,1.106,0,0,1,4.526,8.354,2.214,2.214,0,1,0,6.658,6.719Z" transform="translate(0 -4.5)" fill="#fff"/>
</svg>
