<svg xmlns="http://www.w3.org/2000/svg" width="13.684" height="12.707" viewBox="0 0 13.684 12.707">
  <g id="GooglePlus" transform="translate(-38.308 -911.524)">
    <path id="Op_component_1" data-name="Op component 1" d="M65.934,1340.935H63.829l0-2.083H63.2v2.083H61.092v.625H63.2v1.875l.633.019,0-1.894h2.105Z" transform="translate(-13.942 -426.912)" fill="#ee4e10"/>
    <path id="Op_component_2" data-name="Op component 2" d="M49.685,1345.313c-.365-.252-1.062-.864-1.062-1.224,0-.422.124-.629.775-1.125a2.624,2.624,0,0,0,1.139-2.055,2.332,2.332,0,0,0-1.3-2.273h1.28l.528-.22s-2.652-.417-3.661-.417c-1.809,0-3.512,1.336-3.512,2.885a2.884,2.884,0,0,0,3.073,2.859c.128,0,.252,0,.374-.011a1.574,1.574,0,0,0-.2.735,1.512,1.512,0,0,0,.549,1.087c-.231,0-.455.007-.7.007-2.241,0-3.965,1.392-3.965,2.835,0,1.421,1.89,2.31,4.131,2.31,2.555,0,3.965-1.414,3.965-2.835a2.727,2.727,0,0,0-1.411-2.557Zm-2.156-1.971h0a2.687,2.687,0,0,1-2.207-2.465c-.18-1.332.518-2.351,1.557-2.32a2.645,2.645,0,0,1,2.207,2.43C49.265,1342.317,48.568,1343.372,47.529,1343.342Zm-.407,6.735h0c-1.549,0-2.667-.956-2.667-2.1,0-1.125,1.388-2.063,2.936-2.047a3.438,3.438,0,0,1,1,.157c.841.57,1.444.892,1.614,1.542a1.735,1.735,0,0,1,.049.406C50.058,1349.179,49.3,1350.077,47.122,1350.077Z" transform="translate(-4.692 -426.476)" fill="#ee4e10"/>
  </g>
</svg>
