<svg xmlns="http://www.w3.org/2000/svg" width="55.932" height="49.705" viewBox="0 0 55.932 49.705">
  <g id="History_1" transform="translate(0)">
    <circle id="Ellipse_17590" data-name="Ellipse 17590" cx="8.126" cy="8.126" r="8.126" transform="translate(39.68 15.82)" fill="#987ad7"/>
    <path id="Path_68431" data-name="Path 68431" d="M305.951,344.249l4.392,22.078,21.092,7.87a22.513,22.513,0,0,0-25.484-29.948Z" transform="translate(-295.555 -325.305)" fill="#f2f2f2"/>
    <path id="Path_68432" data-name="Path 68432" d="M268.193,790.463a4.511,4.511,0,0,0,2.155,1.829,3.884,3.884,0,0,0-2.5-4.635A4.511,4.511,0,0,0,268.193,790.463Z" transform="translate(-259.648 -742.63)" fill="#3f3d56"/>
    <path id="Path_68433" data-name="Path 68433" d="M239.07,819.306a4.511,4.511,0,0,1,1.726,2.239,3.884,3.884,0,0,1-4.512-2.715A4.512,4.512,0,0,1,239.07,819.306Z" transform="translate(-230.051 -771.894)" fill="#6c63ff"/>
    <path id="Path_68434" data-name="Path 68434" d="M303.98,510.718c1.952-5.135,2.234-11.778,1.824-19.048q-.009-.172-.02-.345-.092-1.572-.225-3.179h4.261q-.087,1.669-.124,3.305c0,.072,0,.144,0,.215-.136,6.986.489,13.478,2.527,19.053Z" transform="translate(-293.702 -461.013)" fill="#3f3d56"/>
    <path id="Path_68435" data-name="Path 68435" d="M435.661,713.044q-2-.338-3.841-.581l.486-.942c-.164-.057-.884.483-.884.483l.638-2.735c-.824.1-1.243,2.892-1.243,2.892l-.921-.944.446,1.062a85.027,85.027,0,0,0-9.745-.613l.416-.807c-.164-.057-.884.483-.884.483l.638-2.735c-.824.1-1.243,2.892-1.243,2.892l-.921-.944.472,1.124a54.745,54.745,0,0,0-5.6.381,6.859,6.859,0,0,1,1.85-2.451,3.2,3.2,0,0,0-1.963,1.376,22.029,22.029,0,0,1,1.273-7.611s-2.256,4.909-1.968,8.2l.034.585a5.541,5.541,0,0,0-2.665.917Z" transform="translate(-393.419 -663.379)" fill="#3f3d56"/>
    <path id="Path_68436" data-name="Path 68436" d="M159.814,52.978c-.148,8.578-6.434,11.466-14.122,11.333q-.268,0-.533-.014-.534-.019-1.057-.058c-6.933-.522-12.27-3.764-12.132-11.742.143-8.256,13.6-17.668,14.579-18.422C146.549,34.075,159.962,44.4,159.814,52.978Z" transform="translate(-131.966 -34.075)" fill="#6c63ff"/>
    <circle id="Ellipse_17591" data-name="Ellipse 17591" cx="1.711" cy="1.711" r="1.711" transform="translate(21.363 35.619)" fill="#2f2e41"/>
    <circle id="Ellipse_17592" data-name="Ellipse 17592" cx="1.711" cy="1.711" r="1.711" transform="translate(19.509 33.366)" fill="#2f2e41"/>
    <path id="Path_68437" data-name="Path 68437" d="M450.343,619.656a1.711,1.711,0,0,0,2.642-.9,1.711,1.711,0,1,1-3.338-.7A1.711,1.711,0,0,0,450.343,619.656Z" transform="translate(-430.598 -583.162)" fill="#2f2e41"/>
    <circle id="Ellipse_17593" data-name="Ellipse 17593" cx="1.397" cy="1.397" r="1.397" transform="translate(22.119 36.603)" fill="#ffb8b8"/>
    <path id="Path_68438" data-name="Path 68438" d="M487.868,681.057s-.57.856-.485,1.226c0,0,.371.171.371.228a5.6,5.6,0,0,0,.342.6l.4.542.171.713h-.827l-.913-.713-.884-.97s-.6-.285-.913-.057l-.171.143a5.832,5.832,0,0,1,.884-.97,2.052,2.052,0,0,0,.456-1.255Z" transform="translate(-463.866 -641.916)" fill="#ffb8b8"/>
    <path id="Path_68439" data-name="Path 68439" d="M526.682,709.18a1.951,1.951,0,0,1,.8.913c.228.6,1.255,2.6,1.255,2.6a10.294,10.294,0,0,1,.029,1.34c-.057.057-.713-.57-.827-.742s-.57-2.224-.57-2.224l-.742-1.2-.143-.684Z" transform="translate(-502.909 -668.841)" fill="#ffb8b8"/>
    <path id="Path_68440" data-name="Path 68440" d="M559.891,725.4l.257-.086s1.568-.97,1.654-1.4,1.34-1.854,1.369-1.084-.913,1.625-.913,1.625-2.053,2.88-2.167,2.053Z" transform="translate(-534.321 -681.468)" fill="#ffb8b8"/>
    <path id="Path_68441" data-name="Path 68441" d="M386.321,714.74s-.029.8-1.141,1.084a8.886,8.886,0,0,0-1.255,2.224c-.114.684-3.108,4.192-3.108,4.192s-2.766.342-2.766,0,2.31-.627,2.31-.627a48.026,48.026,0,0,0,2.538-4.078c.114-.485,1.2-4.078,1.711-4.049,0,0,.485-.228.77-.057A6.477,6.477,0,0,1,386.321,714.74Z" transform="translate(-363.346 -672.776)" fill="#ffb8b8"/>
    <path id="Path_68442" data-name="Path 68442" d="M565.12,742.973a21.6,21.6,0,0,1,2.424-2.852c.428-.171.97-.285,1.283.114s4.021,5.076,4.021,5.076,1.312,1.34,1.968,1.084c0,0,.342.285-.456.342a4.756,4.756,0,0,1-1.54-.171s-.485.086-.827.171-.77.114-.742-.114l.114-.913s-2.937-2.424-3.023-3.451c0,0,.057-.485,0-.428a12.252,12.252,0,0,1-1.8,1.626,15.32,15.32,0,0,1-1.882.684Z" transform="translate(-538.809 -697.786)" fill="#ffb8b8"/>
    <path id="Path_68443" data-name="Path 68443" d="M565.12,742.973a21.6,21.6,0,0,1,2.424-2.852c.428-.171.97-.285,1.283.114s4.021,5.076,4.021,5.076,1.312,1.34,1.968,1.084c0,0,.342.285-.456.342a4.756,4.756,0,0,1-1.54-.171s-.485.086-.827.171-.77.114-.742-.114l.114-.913s-2.937-2.424-3.023-3.451c0,0,.057-.485,0-.428a12.252,12.252,0,0,1-1.8,1.626,15.32,15.32,0,0,1-1.882.684Z" transform="translate(-538.809 -697.786)" opacity="0.1"/>
    <path id="Path_68444" data-name="Path 68444" d="M562.114,770.841s2.624-1,2.966-1.226,1.569-.684,2.2-.171,3.679,2.88,4.706,3.108,2.795.77,2.795.77,1.141.086-.086.57a6.311,6.311,0,0,0-1.768.371c-.257.228-1.112.513-1.169.143s-.228-.856-.542-.913-4.078-1.084-4.648-2.2a10.54,10.54,0,0,0-2.082,1.54,6.885,6.885,0,0,1-2.681,1.283Z" transform="translate(-536.116 -725.284)" fill="#ffb8b8"/>
    <path id="Path_68445" data-name="Path 68445" d="M506.7,781.247s1.25.332,1.352.209.644.561.131,1.93-.4,2-.684,2.2-1.626-.114-2.025.029-.913.257-1.084-.57a16.577,16.577,0,0,1-.513-2.481,3.822,3.822,0,0,1,.542-.656l.941-.485Z" transform="translate(-481.641 -736.602)" fill="#2f2e41"/>
    <path id="Path_68446" data-name="Path 68446" d="M478.321,710.053s.2-.556.567-.66a.937.937,0,0,0,.092-.03.7.7,0,0,1,.867.249c.371.513.713,1.112.428,1.454a2.289,2.289,0,0,1-.856.542l-.428.542a7.371,7.371,0,0,1,.856,2.253s.029.285.513-.228a6.9,6.9,0,0,1,2.469-.868s-.415-.558-.1-.814a1.1,1.1,0,0,0-.142-1.68l-1.27-1.87-.228.029s.3.271.328.414,1.169,1.141.713,1.312a1.58,1.58,0,0,1-1.511-.627,3.1,3.1,0,0,0-.72-.761,1.066,1.066,0,0,0-1.067-.057l-.1.048h0a1.222,1.222,0,0,0-.422.52l-.034.079Z" transform="translate(-457.585 -668.616)" fill="#2f2e41"/>
    <circle id="Ellipse_17594" data-name="Ellipse 17594" cx="1.255" cy="1.255" r="1.255" transform="translate(21.363 36.361)" fill="#2f2e41"/>
    <ellipse id="Ellipse_17595" data-name="Ellipse 17595" cx="1.112" cy="0.87" rx="1.112" ry="0.87" transform="translate(22.561 36.275)" fill="#2f2e41"/>
    <ellipse id="Ellipse_17596" data-name="Ellipse 17596" cx="0.185" cy="0.328" rx="0.185" ry="0.328" transform="translate(23.074 38.186)" fill="#a0616a"/>
    <path id="Path_68447" data-name="Path 68447" d="M515.982,627.958v2.271h.656v-2.271a.153.153,0,0,0-.153-.153h-.35a.153.153,0,0,0-.153.153Z" transform="translate(-493.036 -592.328)" fill="#ff6584"/>
    <circle id="Ellipse_17597" data-name="Ellipse 17597" cx="0.713" cy="0.713" r="0.713" transform="translate(22.561 37.644)" fill="#6c63ff"/>
    <circle id="Ellipse_17598" data-name="Ellipse 17598" cx="0.314" cy="0.314" r="0.314" transform="translate(22.96 38.043)" fill="#f2f2f2"/>
    <circle id="Ellipse_17599" data-name="Ellipse 17599" cx="0.086" cy="0.086" r="0.086" transform="translate(23.188 38.271)" fill="#ff6584"/>
    <path id="Path_68448" data-name="Path 68448" d="M515.982,627.958v.1h.656v-.1a.153.153,0,0,0-.153-.153h-.35a.153.153,0,0,0-.153.153Z" transform="translate(-493.036 -592.328)" opacity="0.1"/>
    <path id="Path_68449" data-name="Path 68449" d="M584.877,696.656l-1.679-1.679a.313.313,0,0,0-.443,0l-1.511,1.511a.313.313,0,0,0,0,.443l1.569,1.569a.313.313,0,0,0,.426.016l1.621-1.4a.313.313,0,0,0,.017-.459Z" transform="translate(-554.313 -655.4)" fill="#2f2e41"/>
    <path id="Path_68450" data-name="Path 68450" d="M461.389,671.8l-1.469-1.469-1.212,1.212,1.412,1.412Z" transform="translate(-431.299 -630.278)" fill="#f2f2f2"/>
    <circle id="Ellipse_17600" data-name="Ellipse 17600" cx="0.702" cy="0.702" r="0.702" transform="translate(28.019 40.65)" fill="#6c63ff"/>
    <path id="Path_68451" data-name="Path 68451" d="M606.606,715.677a.7.7,0,0,0-.715-1.173.7.7,0,1,1,.637,1.236A.7.7,0,0,0,606.606,715.677Z" transform="translate(-577.573 -673.728)" opacity="0.1"/>
    <path id="Path_68452" data-name="Path 68452" d="M605.909,723.455a.438.438,0,0,0,.04.5.317.317,0,0,0,.423-.005c.084-.079.008-.143-.12-.28S605.993,723.376,605.909,723.455Z" transform="translate(-577.534 -682.243)" fill="#f2f2f2"/>
    <circle id="Ellipse_17601" data-name="Ellipse 17601" cx="0.208" cy="0.208" r="0.208" transform="translate(28.88 41.155)" fill="#2f2e41"/>
    <circle id="Ellipse_17602" data-name="Ellipse 17602" cx="0.208" cy="0.208" r="0.208" transform="translate(28.506 40.757)" fill="#2f2e41"/>
    <circle id="Ellipse_17603" data-name="Ellipse 17603" cx="0.052" cy="0.052" r="0.052" transform="translate(29.036 41.311)" fill="#f2f2f2"/>
    <circle id="Ellipse_17604" data-name="Ellipse 17604" cx="0.026" cy="0.026" r="0.026" transform="translate(29.085 41.209)" fill="#f2f2f2"/>
    <circle id="Ellipse_17605" data-name="Ellipse 17605" cx="0.026" cy="0.026" r="0.026" transform="translate(28.711 40.811)" fill="#f2f2f2"/>
    <circle id="Ellipse_17606" data-name="Ellipse 17606" cx="0.052" cy="0.052" r="0.052" transform="translate(28.662 40.913)" fill="#f2f2f2"/>
    <path id="Path_68453" data-name="Path 68453" d="M902.029,379.026v6.914a.178.178,0,0,0,.267.164l5.48-3.457a.2.2,0,0,0,0-.326l-5.48-3.457a.176.176,0,0,0-.267.162Z" transform="translate(-856.016 -358.239)" fill="#f2f2f2"/>
    <path id="Path_68454" data-name="Path 68454" d="M301.075,64.512l-.1-1.039-.488-2.266-1.074-5,4.761-8.71-4.743,7.605.051-3.165,3.282-6.3L299.5,51.1l.093-5.693,3.513-5.017-3.5,4.122.057-10.4v-.044l0,.045L299.314,47.3l-3.558-5.445,3.515,6.562-.333,6.359-.01-.168-4.118-5.755,4.106,6.351-.041.795-.008.013,0,.065-1.054,5.128-.654,3.179q.011.173.02.345c.6.013,3.5-.008,3.888,0Z" transform="translate(-285.08 -34.075)" fill="#3f3d56"/>
  </g>
</svg>
