<svg xmlns="http://www.w3.org/2000/svg" width="319.578" height="317.369" viewBox="0 0 319.578 317.369">
  <g id="image_edit" data-name="image edit" transform="translate(499.132 -177.184)">
    <path id="Path_10" data-name="Path 10" d="M-338.939,177.247c32.318,0,64.636-.064,96.954.019a62.115,62.115,0,0,1,60.9,48.974c1.28,5.9,1.228,12.124,1.4,18.21.222,7.729.113,15.469.029,23.2-.067,6.165-3.769,10.032-9.262,9.911-5.24-.116-8.84-4.092-8.874-9.972-.052-8.858-.008-17.716-.017-26.574-.024-25.346-17.657-44-43.012-45.494-1-.059-2-.084-2.993-.084q-94.709-.006-189.417.045c-19.313.04-34.049,8.407-43.25,25.685a39.853,39.853,0,0,0-4.35,19.124q.057,60.259.023,120.518c.008,22.308,16.769,41.6,39.054,43.86,11.125,1.127,22.42.551,33.636.817,6.884.164,11.194,6.212,8.808,12.31-1.226,3.134-3.614,5.615-6.9,5.59-15.291-.119-30.829,2.339-45.786-2.175-25.259-7.624-41.388-24.1-46.378-50.49a54.692,54.692,0,0,1-.6-10.064c-.038-39.923.422-79.852-.16-119.767-.5-34.073,28.477-63.366,63.607-63.6C-403.327,177.078-371.133,177.247-338.939,177.247Z"/>
    <path id="Path_11" data-name="Path 11" d="M-179.666,364.037a28.414,28.414,0,0,1-8.505,20.92Q-237.074,434-286.2,482.81c-2.267,2.244-6.018,3.519-9.287,4.131-14.456,2.7-28.987,5-43.491,7.443a12.782,12.782,0,0,1-14.652-13.1c.192-5.721,1.006-11.424,1.614-17.127,1.151-10.787,2.157-21.6,3.672-32.333a14.689,14.689,0,0,1,3.837-7.777q48.532-48.882,97.371-97.458a29.973,29.973,0,0,1,42.2-.107c5.667,5.447,11.186,11.05,16.679,16.674A28.911,28.911,0,0,1-179.666,364.037ZM-334.858,475.329c11.583-2.007,22.633-3.819,33.628-5.916a11.636,11.636,0,0,0,5.692-2.988q34.659-34.407,69.126-69.009c.848-.848,1.631-1.761,2.039-2.2l-33.062-33.057c-.642.765-1.448,1.885-2.41,2.848-21.6,21.623-43.132,43.312-64.9,64.762-4.018,3.959-6.489,7.9-6.836,13.745C-332.2,453.931-333.674,464.3-334.858,475.329ZM-210.7,381.636c3.408-3.416,6.909-6.621,10.049-10.149a10.868,10.868,0,0,0-.184-14.983c-5.666-5.969-11.51-11.78-17.461-17.466-3.9-3.722-10.117-4.346-14.093-.941-3.913,3.352-7.1,7.555-10.553,11.332Z"/>
    <path id="Path_12" data-name="Path 12" d="M-276.278,276.9c-4.9,4.611-9.735,9.16-14.563,13.717q-32.313,30.494-64.619,60.992c-5.6,5.281-12.822,5.28-18.441.005q-12.45-11.686-24.9-23.374c-.475-.446-.978-.875-1.622-1.449-4.4,4.3-8.7,8.5-13.008,12.7-.683.667-1.338,1.353-2.069,1.991a12.951,12.951,0,0,1-14.281,1.246c-4.467-2.478-5.674-7.118-2.289-10.518,7.745-7.779,15.594-15.506,23.637-23.116,4.183-3.958,11.854-3.677,16.254.406,7.979,7.4,15.86,14.866,23.783,22.3,1.168,1.1,2.343,2.191,3.683,3.443,2.118-1.982,4.059-3.785,5.981-5.6q36.1-34.068,72.2-68.138c.752-.71,1.473-1.441,2.284-2.112,4.2-3.47,11.364-3.665,15.427-.113q12.822,11.21,25.2,22.7c3.583,3.316,2.628,7.969-1.7,10.58-4.435,2.679-10.689,2.341-14.493-.967-5.134-4.463-10.09-9.039-15.126-13.565C-275.328,277.688-275.738,277.359-276.278,276.9Z"/>
    <path id="Path_13" data-name="Path 13" d="M-361.154,267.605a23.327,23.327,0,0,1-23.289,23.24,23.328,23.328,0,0,1-23.188-23.34,23.332,23.332,0,0,1,23.192-23.14A23.316,23.316,0,0,1-361.154,267.605Zm-15.5-.014a7.767,7.767,0,0,0-7.753-7.728,7.762,7.762,0,0,0-7.727,7.753,7.769,7.769,0,0,0,7.751,7.73A7.775,7.775,0,0,0-376.653,267.591Z"/>
  </g>
</svg>
