<?xml version="1.0" standalone="no"?>
<!DOCTYPE svg PUBLIC "-//W3C//DTD SVG 20010904//EN"
 "http://www.w3.org/TR/2001/REC-SVG-20010904/DTD/svg10.dtd">
<svg version="1.0" xmlns="http://www.w3.org/2000/svg"
 width="50.000000pt" height="70.000000pt" viewBox="0 0 50.000000 70.000000"
 preserveAspectRatio="xMidYMid meet">

<g transform="translate(0.000000,70.000000) scale(0.100000,-0.100000)"
fill="#000000" stroke="none">
<path d="M288 695 c-2 -3 -49 -14 -104 -25 -131 -26 -184 -47 -184 -70 0 -10
6 -20 13 -23 13 -5 81 4 157 22 24 5 46 8 48 6 2 -2 -7 -19 -21 -37 -14 -18
-34 -52 -45 -74 -21 -41 -21 -42 -2 -59 18 -17 28 -17 114 -7 147 18 149 17
93 -52 -89 -110 -105 -152 -65 -180 27 -19 30 -17 66 47 16 28 55 80 86 115
31 34 56 67 56 73 0 48 -96 85 -192 75 -32 -4 -58 -3 -58 1 0 10 25 48 61 95
14 18 29 41 32 50 9 27 -35 62 -55 43z"/>
<path d="M128 119 c-12 -7 -18 -22 -18 -49 0 -51 36 -80 76 -62 42 20 55 92
20 114 -16 11 -58 9 -78 -3z"/>
</g>
</svg>
