<svg xmlns="http://www.w3.org/2000/svg" viewBox="0 0 500 500"><g id="freepik--Plants--inject-10"><path d="M320.6,395.65c-16.93-16.49-17.21-42-12.81-64.15.74-3.7,1-7.69,3.28-10.67s6.79-4.53,9.87-2.41c2.55,1.75,3.23,5.16,4.34,8.07a21.94,21.94,0,0,0,7.36,9.76c2.17,1.62,5,2.85,7.52,1.95,3.5-1.25,4.61-5.62,5.19-9.32q1.62-10.36,3.26-20.71c.58-3.71,1.19-7.49,2.91-10.81s4.81-6.17,8.49-6.58,7.7,2.33,7.85,6.08a34.93,34.93,0,0,1-.65,4.62c-.15,1.55.29,3.37,1.68,4s3.06-.13,4.34-1c4.43-3.11,7.81-7.49,11-11.88s6.36-8.91,10.5-12.42,9.45-5.95,14.8-5.38S420,279.56,420.48,285s-3.42,10.23-7.42,13.91a83.87,83.87,0,0,1-19.88,13.58c-1.3.64-2.71,1.32-3.38,2.62-1.21,2.34.73,5.17,3,6.38,2.61,1.37,5.64,1.57,8.47,2.39s5.75,2.59,6.4,5.5c.89,4-2.92,7.47-6.46,9.56a71.68,71.68,0,0,1-22.92,8.66c-2.88.55-5.89.95-8.4,2.51s-4.37,4.66-3.47,7.48,4.16,4.22,7.1,4.16,5.74-1.2,8.63-1.78c5.4-1.08,11.91.34,14.44,5.27,1.67,3.24,1.2,7.29-.45,10.56a27.29,27.29,0,0,1-7.1,8.23c-9.72,8.22-21.41,14.21-33.88,16.37s-23.57,1.48-34.59-4.73" style="fill:#E74C3C"></path><path d="M317.6,412.13a164.56,164.56,0,0,1,11-29.51,337,337,0,0,1,19-33.54l5.44-8.53c1.79-2.8,3.56-5.58,5.47-8.18A167.55,167.55,0,0,1,370.34,318c4-4.39,7.9-8.4,11.61-12.13s7.23-7.12,10.58-10.08a133,133,0,0,1,16.8-12.8c2.1-1.35,3.76-2.35,4.89-3l1.3-.75A2.73,2.73,0,0,1,416,279a3,3,0,0,1-.42.3l-1.26.8c-1.11.69-2.74,1.72-4.81,3.11a138.87,138.87,0,0,0-16.63,12.94c-3.32,3-6.81,6.39-10.5,10.12s-7.59,7.77-11.54,12.15a169.72,169.72,0,0,0-11.72,14.32c-1.89,2.59-3.65,5.35-5.44,8.15s-3.59,5.65-5.43,8.53a347.12,347.12,0,0,0-19,33.45,167.62,167.62,0,0,0-11.14,29.35" style="fill:#263238"></path><path d="M358.74,332.37a8.2,8.2,0,0,1-.1-1.64c0-1.05,0-2.58,0-4.46.08-3.77.37-9,.7-14.71s.56-10.92.58-14.69c0-1.88,0-3.4,0-4.45a7.07,7.07,0,0,1,.06-1.64,8.24,8.24,0,0,1,.21,1.63c.1,1,.17,2.57.22,4.46.1,3.77,0,9-.38,14.73s-.66,10.78-.91,14.69c-.09,1.76-.17,3.25-.24,4.45A7,7,0,0,1,358.74,332.37Z" style="fill:#263238"></path><path d="M407.77,331.27a9.72,9.72,0,0,1-1.93-.08c-1.24-.09-3-.24-5.25-.34-4.44-.24-10.57-.36-17.35-.2s-12.9.59-17.33,1c-2.21.2-4,.41-5.23.55a10.31,10.31,0,0,1-1.94.15,10.88,10.88,0,0,1,1.9-.42c1.23-.22,3-.5,5.22-.77,4.43-.56,10.57-1.05,17.37-1.23a170.7,170.7,0,0,1,17.39.41c2.22.17,4,.38,5.25.56A9.89,9.89,0,0,1,407.77,331.27Z" style="fill:#263238"></path><path d="M329.37,381.84s-.1-.21-.23-.63-.32-1.11-.54-1.86c-.45-1.61-1.05-4-1.75-6.87-1.4-5.83-3.08-13.93-4.82-22.91s-3.35-17.08-4.63-22.93c-.63-2.84-1.15-5.18-1.53-6.92-.17-.75-.3-1.38-.41-1.89a2.54,2.54,0,0,1-.1-.67,2.27,2.27,0,0,1,.24.64c.14.5.31,1.11.53,1.85.45,1.61,1.05,4,1.75,6.88,1.4,5.82,3.09,13.93,4.82,22.91s3.35,17.08,4.63,22.93c.63,2.84,1.15,5.18,1.53,6.92.17.75.3,1.37.41,1.88A2.63,2.63,0,0,1,329.37,381.84Z" style="fill:#263238"></path><path d="M395.92,371.82a2.57,2.57,0,0,1-.67.15l-1.94.32-7.13,1.08c-6,.92-14.31,2.29-23.48,3.8s-17.49,2.81-23.53,3.6c-3,.4-5.47.7-7.16.87l-2,.19a2.22,2.22,0,0,1-.68,0,3.22,3.22,0,0,1,.67-.15l1.93-.32,7.13-1.08c6-.92,14.32-2.28,23.49-3.8s17.49-2.81,23.53-3.6c3-.4,5.46-.7,7.16-.87l2-.18A2.15,2.15,0,0,1,395.92,371.82Z" style="fill:#263238"></path><path d="M152.38,170.79a11.13,11.13,0,0,1-3.83-10.5,14.8,14.8,0,0,1,6.36-9.48c1.49-1,3.34-1.84,5.08-1.33a4.78,4.78,0,0,1,3.08,3.72,9.64,9.64,0,0,1-.58,5c-1.9,5.48-4.74,10.44-10.11,12.62" style="fill:#455a64"></path><path d="M147.31,180.15a26,26,0,0,0-23-6c-2,.47-4.35,1.55-4.68,3.62s1.51,3.84,3.33,4.9a22.26,22.26,0,0,0,24.61-2" style="fill:#455a64"></path><path d="M118,136.81A13.06,13.06,0,0,1,128,138.55a22.92,22.92,0,0,1,7.2,7.52c3.62,5.72,4.9,13.42,5.06,20.19-7.52-.3-13.94-6.21-17-9.42-4.86-5.06-10.56-17.15-5.32-20" style="fill:#455a64"></path><path d="M158.68,190.38a27.69,27.69,0,0,1-1.88-2.84,47.66,47.66,0,0,1-4.23-12.07,23.87,23.87,0,0,1,.94-12.73,15.63,15.63,0,0,1,1.81-3.45,4.74,4.74,0,0,1,.93-1.09,33.32,33.32,0,0,0-2.24,4.72,25.18,25.18,0,0,0-.7,12.42,55.55,55.55,0,0,0,4,12" style="fill:#263238"></path><path d="M158.75,190.47l-3.92-5.05c-3.29-4.27-7.86-10.16-13-16.6s-9.85-12.2-13.27-16.36l-4-5a13.51,13.51,0,0,1-1.42-1.87,14.92,14.92,0,0,1,1.64,1.68c1,1.12,2.47,2.75,4.24,4.79,3.53,4.08,8.32,9.8,13.46,16.24s9.63,12.39,12.82,16.75c1.6,2.18,2.87,4,3.73,5.19" style="fill:#263238"></path><path d="M129,178.58a4.24,4.24,0,0,1,1.3-.4,10,10,0,0,1,1.57-.3,19.19,19.19,0,0,1,2.11-.23,27.47,27.47,0,0,1,5.53.21,31.6,31.6,0,0,1,6.55,1.71,32.13,32.13,0,0,1,6,3.17,27.45,27.45,0,0,1,4.21,3.58,18.8,18.8,0,0,1,1.41,1.59,12.22,12.22,0,0,1,1,1.28c.49.73.42,1.07.38,1.1a44.55,44.55,0,0,0-3.12-3.59,30.78,30.78,0,0,0-4.22-3.38,33.29,33.29,0,0,0-5.87-3,33.78,33.78,0,0,0-6.39-1.73,29.64,29.64,0,0,0-5.4-.36C130.9,178.26,129,178.72,129,178.58Z" style="fill:#263238"></path></g><g id="freepik--speech-bubbles--inject-10"><path d="M424.23,154.09H198.78a8.81,8.81,0,0,0-8.81,8.82v69.93a8.81,8.81,0,0,0,8.81,8.82h16.8c1.35,7.3,2.93,16.51,2.93,16.51l15.2-16.51H424.23a8.81,8.81,0,0,0,8.81-8.82V162.91A8.81,8.81,0,0,0,424.23,154.09Z" style="fill:#E74C3C"></path><path d="M331.21,192c0,.14-26.83.26-59.92.26s-59.93-.12-59.93-.26,26.83-.27,59.93-.27S331.21,191.88,331.21,192Z" style="fill:#f5f5f5"></path><path d="M331.21,181.28c0,.14-26.83.26-59.92.26s-59.93-.12-59.93-.26,26.83-.26,59.93-.26S331.21,181.13,331.21,181.28Z" style="fill:#f5f5f5"></path><path d="M331.21,202.66c0,.14-26.83.26-59.92.26s-59.93-.12-59.93-.26,26.83-.26,59.93-.26S331.21,202.51,331.21,202.66Z" style="fill:#f5f5f5"></path><path d="M289.86,213.67c0,.14-17.57.26-39.25.26s-39.25-.12-39.25-.26,17.57-.26,39.25-.26S289.86,213.52,289.86,213.67Z" style="fill:#f5f5f5"></path><path d="M322.36,279.82H95.07A6.16,6.16,0,0,0,88.9,286v74a6.17,6.17,0,0,0,6.17,6.17H260.15l15,16.33s1.57-9.18,2.9-16.33h44.28a6.17,6.17,0,0,0,6.17-6.17V286A6.16,6.16,0,0,0,322.36,279.82Z" style="fill:#455a64"></path><path d="M313.45,318c0,.14-26.83.26-59.93.26s-59.93-.12-59.93-.26,26.83-.26,59.93-.26S313.45,317.82,313.45,318Z" style="fill:#f5f5f5"></path><path d="M313.45,307.22c0,.14-26.83.26-59.93.26s-59.93-.12-59.93-.26,26.83-.26,59.93-.26S313.45,307.07,313.45,307.22Z" style="fill:#f5f5f5"></path><path d="M313.45,328.6c0,.14-26.83.26-59.93.26s-59.93-.12-59.93-.26,26.83-.26,59.93-.26S313.45,328.46,313.45,328.6Z" style="fill:#f5f5f5"></path><path d="M272.1,339.61c0,.15-17.57.26-39.25.26s-39.26-.11-39.26-.26,17.58-.26,39.26-.26S272.1,339.47,272.1,339.61Z" style="fill:#f5f5f5"></path></g></svg>