<svg xmlns="http://www.w3.org/2000/svg" width="16" height="16" viewBox="0 0 16 16">
  <g id="Selection" transform="translate(-154 -636)">
    <circle id="Ellipse_17582" data-name="Ellipse 17582" cx="8" cy="8" r="8" transform="translate(154 636)" fill="#f25168"/>
    <path id="Selected" d="M8.393,3.375A5.018,5.018,0,1,0,13.41,8.393,5.017,5.017,0,0,0,8.393,3.375Zm2.569,3.631-3.225,3.24h0a.436.436,0,0,1-.28.133.422.422,0,0,1-.282-.138L5.821,8.89a.1.1,0,0,1,0-.138l.429-.429a.093.093,0,0,1,.135,0L7.457,9.394,10.4,6.429a.1.1,0,0,1,.068-.029h0a.088.088,0,0,1,.068.029l.422.437A.1.1,0,0,1,10.962,7.006Z" transform="translate(153.757 635.625)" fill="#fff"/>
  </g>
</svg>
