<svg xmlns="http://www.w3.org/2000/svg" width="15.321" height="12.586" viewBox="0 0 15.321 12.586">
  <path id="Twitter" d="M54.324,1097.491a6.248,6.248,0,0,1-1.805.5,3.18,3.18,0,0,0,1.382-1.757,6.241,6.241,0,0,1-2,.771,3.121,3.121,0,0,0-2.294-1,3.16,3.16,0,0,0-3.143,3.177,3.228,3.228,0,0,0,.082.724,8.89,8.89,0,0,1-6.478-3.32,3.2,3.2,0,0,0,.973,4.242,3.11,3.11,0,0,1-1.424-.4v.04a3.171,3.171,0,0,0,2.521,3.116,3.119,3.119,0,0,1-1.42.054,3.152,3.152,0,0,0,2.936,2.206,6.263,6.263,0,0,1-3.9,1.36,6.4,6.4,0,0,1-.75-.044,8.829,8.829,0,0,0,4.818,1.428,8.934,8.934,0,0,0,8.943-9.04c0-.138,0-.274-.009-.411a6.419,6.419,0,0,0,1.568-1.644Z" transform="translate(-39.004 -1096.002)" fill="#32ace5"/>
</svg>
