<?xml version="1.0" encoding="utf-8"?>
<svg width="22" height="22" viewBox="0 0 22 22" xmlns="http://www.w3.org/2000/svg">
  <g id="Heart" transform="translate(-24 -622)">
    <circle id="Ellipse_17559" data-name="Ellipse 17559" cx="11" cy="11" r="11" transform="translate(24 622)" style="fill: rgb(177, 177, 177);"/>
    <path id="Like" d="M12.1,3.938h-.029A3.267,3.267,0,0,0,9.347,5.431,3.267,3.267,0,0,0,6.62,3.938H6.591A3.246,3.246,0,0,0,3.375,7.182a6.989,6.989,0,0,0,1.373,3.81,24.053,24.053,0,0,0,4.6,4.431,24.053,24.053,0,0,0,4.6-4.431,6.989,6.989,0,0,0,1.373-3.81A3.246,3.246,0,0,0,12.1,3.938Z" transform="translate(25.625 624.063)" fill="#fff"/>
  </g>
</svg>