<svg xmlns="http://www.w3.org/2000/svg" xmlns:xlink="http://www.w3.org/1999/xlink" width="58" height="58" viewBox="0 0 58 58">
  <defs>
    <filter id="Rectangle_6332" x="0" y="0" width="58" height="58" filterUnits="userSpaceOnUse">
      <feOffset dy="3" input="SourceAlpha"/>
      <feGaussianBlur stdDeviation="3" result="blur"/>
      <feFlood flood-opacity="0.031"/>
      <feComposite operator="in" in2="blur"/>
      <feComposite in="SourceGraphic"/>
    </filter>
  </defs>
  <g id="Upload_Image" transform="translate(-211 -151)">
    <g transform="matrix(1, 0, 0, 1, 211, 151)" filter="url(#Rectangle_6332)">
      <rect id="Rectangle_6332-2" data-name="Rectangle 6332" width="40" height="40" rx="20" transform="translate(9 6)" fill="#e74c3c"/>
    </g>
    <g id="Icon_feather-image" data-name="Icon feather-image" transform="translate(228.117 164.944)">
      <path id="Path_68428" data-name="Path 68428" d="M6.179,4.5H17.933a1.679,1.679,0,0,1,1.679,1.679V17.933a1.679,1.679,0,0,1-1.679,1.679H6.179A1.679,1.679,0,0,1,4.5,17.933V6.179A1.679,1.679,0,0,1,6.179,4.5Z" fill="none" stroke="#fff" stroke-linecap="round" stroke-linejoin="round" stroke-width="2"/>
      <path id="Path_68429" data-name="Path 68429" d="M13.019,11.759A1.259,1.259,0,1,1,11.759,10.5,1.259,1.259,0,0,1,13.019,11.759Z" transform="translate(-2.642 -2.642)" fill="none" stroke="#fff" stroke-linecap="round" stroke-linejoin="round" stroke-width="2"/>
      <path id="Path_68430" data-name="Path 68430" d="M20.933,19.2l-4.2-4.2L7.5,24.235" transform="translate(-1.321 -4.623)" fill="none" stroke="#fff" stroke-linecap="round" stroke-linejoin="round" stroke-width="2"/>
    </g>
  </g>
</svg>
