<svg xmlns="http://www.w3.org/2000/svg" width="13.558" height="13.558" viewBox="0 0 13.558 13.558">
  <path id="Verified" d="M10.154,3.375a6.779,6.779,0,1,0,6.779,6.779A6.778,6.778,0,0,0,10.154,3.375ZM13.625,8.28,9.268,12.657h0a.589.589,0,0,1-.378.179.571.571,0,0,1-.381-.186L6.68,10.825a.13.13,0,0,1,0-.186l.58-.58a.126.126,0,0,1,.183,0L8.89,11.507,12.866,7.5a.129.129,0,0,1,.091-.039h0a.118.118,0,0,1,.091.039l.57.59A.128.128,0,0,1,13.625,8.28Z" transform="translate(-3.375 -3.375)" fill="#e74c3c"/>
</svg>
