<svg xmlns="http://www.w3.org/2000/svg" width="21.811" height="21.756" viewBox="0 0 21.811 21.756">
  <path id="Videos" d="M15.1,11.537l-3.334-2.5v9.839l3.334-2.5,3.225-2.416Zm0,0-3.334-2.5v9.839l3.334-2.5,3.225-2.416Zm0,0-3.334-2.5v9.839l3.334-2.5,3.225-2.416ZM12.86,5.283V3.075A10.877,10.877,0,0,0,7.044,5.491L8.6,7.055A8.682,8.682,0,0,1,12.86,5.283ZM7.055,8.6,5.491,7.044A10.877,10.877,0,0,0,3.075,12.86H5.283A8.682,8.682,0,0,1,7.055,8.6Zm-1.771,6.45H3.075a10.877,10.877,0,0,0,2.416,5.816L7.055,19.3A8.6,8.6,0,0,1,5.283,15.046Zm1.76,7.369a10.912,10.912,0,0,0,5.816,2.416V22.623A8.682,8.682,0,0,1,8.6,20.852L7.044,22.415Zm17.842-8.462A10.949,10.949,0,0,1,15.1,24.831V22.623a8.745,8.745,0,0,0,0-17.339V3.075A10.949,10.949,0,0,1,24.886,13.953Z" transform="translate(-3.075 -3.075)"/>
</svg>
