<svg xmlns="http://www.w3.org/2000/svg" width="319.579" height="317.369" viewBox="0 0 319.579 317.369">
  <g id="Video_Edit" data-name="Video Edit" transform="translate(1488.935 -177.184)">
    <path id="Path_4" data-name="Path 4" d="M-1328.741,177.247c32.318,0,64.636-.064,96.954.019a62.116,62.116,0,0,1,60.9,48.974c1.279,5.9,1.227,12.124,1.4,18.21.222,7.729.113,15.469.029,23.2-.068,6.165-3.769,10.032-9.262,9.911-5.24-.116-8.84-4.092-8.875-9.972-.051-8.858-.008-17.716-.016-26.574-.024-25.346-17.657-44-43.013-45.494-.995-.059-1.995-.084-2.992-.084q-94.709-.006-189.417.045c-19.314.04-34.049,8.407-43.25,25.685a39.853,39.853,0,0,0-4.35,19.124q.056,60.259.022,120.518c.009,22.308,16.769,41.6,39.055,43.86,11.125,1.127,22.419.551,33.635.817,6.885.164,11.2,6.212,8.809,12.31-1.226,3.134-3.614,5.615-6.9,5.59-15.291-.119-30.829,2.339-45.786-2.175-25.259-7.624-41.388-24.1-46.378-50.49a54.687,54.687,0,0,1-.595-10.064c-.038-39.923.422-79.852-.161-119.767-.5-34.073,28.478-63.366,63.608-63.6C-1393.129,177.078-1360.935,177.247-1328.741,177.247Z"/>
    <path id="Path_5" data-name="Path 5" d="M-1169.468,364.037a28.414,28.414,0,0,1-8.505,20.92q-48.9,49.041-98.034,97.853c-2.267,2.244-6.018,3.519-9.288,4.131-14.455,2.7-28.986,5-43.491,7.443a12.782,12.782,0,0,1-14.651-13.1c.192-5.721,1.006-11.424,1.614-17.127,1.151-10.787,2.157-21.6,3.672-32.333a14.681,14.681,0,0,1,3.837-7.777q48.532-48.882,97.371-97.458a29.973,29.973,0,0,1,42.2-.107c5.667,5.447,11.186,11.05,16.679,16.674A28.919,28.919,0,0,1-1169.468,364.037ZM-1324.66,475.329c11.583-2.007,22.632-3.819,33.627-5.916a11.636,11.636,0,0,0,5.693-2.988q34.659-34.407,69.125-69.009c.848-.848,1.632-1.761,2.04-2.2l-33.062-33.057c-.642.765-1.448,1.885-2.41,2.848-21.6,21.623-43.132,43.312-64.9,64.762-4.018,3.959-6.489,7.9-6.836,13.745C-1322,453.931-1323.476,464.3-1324.66,475.329Zm124.16-93.693c3.409-3.416,6.91-6.621,10.05-10.149a10.868,10.868,0,0,0-.184-14.983c-5.666-5.969-11.51-11.78-17.461-17.466-3.9-3.722-10.117-4.346-14.093-.941-3.913,3.352-7.1,7.555-10.553,11.332Z"/>
    <path id="Path_6" data-name="Path 6" d="M-1379.3,300.846c0-14.221.035-28.442-.012-42.663-.028-8.708,3.8-15.168,11.458-19.087,7.714-3.951,15.517-3.691,22.626,1.475,19.974,14.514,39.937,29.048,59.689,43.86,11.729,8.8,11.489,24.878-.283,33.517-19.5,14.311-39.126,28.46-58.7,42.671-7.358,5.342-15.25,6.016-23.265,1.942-7.957-4.045-11.64-10.8-11.548-19.8C-1379.2,328.791-1379.3,314.818-1379.3,300.846Zm18.178.015c0,13.34-.061,26.681.072,40.019.017,1.79.6,4.723,1.64,5.086,1.559.546,4.113-.2,5.615-1.279,18.642-13.352,37.174-26.858,55.724-40.338,3.8-2.761,3.811-3.769-.04-6.6q-28.011-20.6-56.106-41.087c-1.327-.964-3.721-1.751-4.949-1.181-1.124.523-1.858,2.992-1.875,4.613C-1361.186,273.681-1361.124,287.271-1361.124,300.861Z"/>
  </g>
</svg>
