<svg xmlns="http://www.w3.org/2000/svg" width="58.596" height="48.476" viewBox="0 0 58.596 48.476">
  <g id="Watch_Later_1" transform="translate(0.001)">
    <path id="Path_68455" data-name="Path 68455" d="M857.421,584.563a9.248,9.248,0,0,0,12.311-13.741Z" transform="translate(-813.738 -538.058)" fill="#f2f2f2"/>
    <path id="Path_68456" data-name="Path 68456" d="M342.421,287.049l-11.429,12.6a9.282,9.282,0,0,0,2.744,3.455l12.311-13.741A9.252,9.252,0,0,0,342.421,287.049Z" transform="translate(-321.356 -272.639)" fill="#f2f2f2"/>
    <path id="Path_68457" data-name="Path 68457" d="M420.015,180.605v-7.367H414v7.345a9.288,9.288,0,0,1,6.015.023Z" transform="translate(-398.996 -166.188)" fill="#95d49b"/>
    <path id="Path_68458" data-name="Path 68458" d="M414,555.347v7.539h6.015v-7.562a9.288,9.288,0,0,1-6.015.023Z" transform="translate(-398.996 -523.563)" fill="#95d49b"/>
    <path id="Path_68459" data-name="Path 68459" d="M326.781,296.3a9.281,9.281,0,1,1,9.281-9.281A9.292,9.292,0,0,1,326.781,296.3Zm0-18.5A9.216,9.216,0,1,0,336,287.019,9.227,9.227,0,0,0,326.781,277.8Z" transform="translate(-308.737 -263.93)"/>
    <path id="Path_68460" data-name="Path 68460" d="M360,326.77a6.532,6.532,0,0,0,6.532,6.532V320.238A6.532,6.532,0,0,0,360,326.77Z" transform="translate(-348.488 -303.681)" fill="#575a89"/>
    <path id="Path_68461" data-name="Path 68461" d="M461,320.238V333.3a6.532,6.532,0,0,0,0-13.064Z" transform="translate(-442.956 -303.681)" fill="#b3edb9"/>
    <ellipse id="Ellipse_17607" data-name="Ellipse 17607" cx="0.5" cy="1" rx="0.5" ry="1" transform="translate(17.295 22.476)" fill="#2f2e41"/>
    <path id="Path_68462" data-name="Path 68462" d="M272.451,310.658l.226,1.79.226,1.79H272l.226-1.79Z" transform="translate(-254.409 -290.566)" fill="#2f2e41"/>
    <path id="Path_68463" data-name="Path 68463" d="M277.339,358.532l-2.944.11-2.943.11,0-.257,0-.257,2.942.147Z" transform="translate(-253.896 -335.069)" fill="#2f2e41"/>
    <path id="Path_68464" data-name="Path 68464" d="M601.583,391.148c-.15,0-.21-.1-.287-.233-.019-.033-.04-.068-.064-.105l.054-.035c.025.038.046.074.065.107.076.13.118.2.231.2.375,0,.679-.624.679-1.391s-.3-1.391-.679-1.391c-.216,0-.366.133-.487.432l-.06-.024c.132-.327.3-.473.547-.473.41,0,.744.653.744,1.455S601.994,391.148,601.583,391.148Z" transform="translate(-573.935 -367.283)"/>
    <ellipse id="Ellipse_17608" data-name="Ellipse 17608" cx="9" rx="9" transform="translate(9.295 45.476)" fill="#f2f2f2"/>
    <ellipse id="Ellipse_17609" data-name="Ellipse 17609" cx="1" cy="1.5" rx="1" ry="1.5" transform="translate(49.296 9.476)" fill="#f2f2f2"/>
    <path id="Path_68465" data-name="Path 68465" d="M191.248,64.238a9.252,9.252,0,0,0-8.408,13.1l11.429-12.6A9.235,9.235,0,0,0,191.248,64.238Z" transform="translate(-182 -64.238)" fill="#f2f2f2"/>
    <circle id="Ellipse_17610" data-name="Ellipse 17610" cx="2.02" cy="2.02" r="2.02" transform="translate(37.958 13.143)" fill="#2f2e41"/>
    <path id="Path_68466" data-name="Path 68466" d="M747.584,489.61a42.43,42.43,0,0,0,1.783,4.075c.17,0,.425-1.528.425-1.528l-1.019-2.886Z" transform="translate(-711.005 -461.781)" fill="#ffb9b9"/>
    <path id="Path_68467" data-name="Path 68467" d="M784.337,314.805a7.236,7.236,0,0,1,.255,2.122c-.17.34.34.849.34.849h1.189l.849-1.358.17-.594a6.581,6.581,0,0,1-.424-1.528A13.3,13.3,0,0,0,784.337,314.805Z" transform="translate(-745.381 -298.098)" fill="#ffb9b9"/>
    <path id="Path_68468" data-name="Path 68468" d="M784.337,314.805a7.236,7.236,0,0,1,.255,2.122c-.17.34.34.849.34.849h1.189l.849-1.358.17-.594a6.581,6.581,0,0,1-.424-1.528A13.3,13.3,0,0,0,784.337,314.805Z" transform="translate(-745.381 -298.098)" opacity="0.1"/>
    <path id="Path_68469" data-name="Path 68469" d="M675.845,704.624v.934l1.1.255.085-1.189Z" transform="translate(-632.135 -659.052)" fill="#575a89"/>
    <path id="Path_68470" data-name="Path 68470" d="M775.9,504.134s-1.188,2.122-.764,3.226,2.037,6.537,2.037,6.537.934,3.056.934,3.226.764,3.905,1.019,3.99,2.547.34,2.632.085.17-1.613-.085-1.868-1.613-8.15-1.613-8.15l-.17-2.632,2.122,6.537a30.208,30.208,0,0,0,.849,4.16c.255.255-.509.509-.255.764s1.188.934,1.1,1.189,2.037.255,2.292.085.17-2.8.17-2.8l-1.188-3.566-1.358-8.659s-.425-2.547-.764-2.547S775.9,504.134,775.9,504.134Z" transform="translate(-736.69 -475.287)" fill="#2f2e41"/>
    <path id="Path_68471" data-name="Path 68471" d="M814.549,771.47s-.679-.594-1.019-.424-1.443,1.783-1.783,1.7-.849.914,0,1a12.733,12.733,0,0,0,2.207-.085,6.565,6.565,0,0,0,.849.085c.34,0,1.1.085,1.1,0a14.534,14.534,0,0,0-.255-2.017C815.568,771.725,814.634,771.725,814.549,771.47Z" transform="translate(-770.584 -725.304)" fill="#2f2e41"/>
    <path id="Path_68472" data-name="Path 68472" d="M914.333,767.771s-.849-.17-.934,0a7.645,7.645,0,0,0-.424.764c0,.085.17,1.1.17,1.189a1.292,1.292,0,0,0,.34.509.3.3,0,0,1,.085.34s2.207.255,2.207-.085a2.827,2.827,0,0,0-.424-1.273C915.182,769.044,914.842,767.856,914.333,767.771Z" transform="translate(-865.699 -722.199)" fill="#2f2e41"/>
    <circle id="Ellipse_17611" data-name="Ellipse 17611" cx="1.783" cy="1.783" r="1.783" transform="translate(38.192 13.906)" fill="#ffb9b9"/>
    <path id="Path_68473" data-name="Path 68473" d="M782.221,349.028a1.187,1.187,0,0,0,1.613-.34c.594-.934,2.462,1.868,2.462,1.868l.509,8.659a17.339,17.339,0,0,0-2.547.509,2.213,2.213,0,0,1-2.377-.594l-.085-4.924.17-2.292-.255-1.868.17-1.1Z" transform="translate(-742.926 -330.113)" fill="#b3edb9"/>
    <path id="Path_68474" data-name="Path 68474" d="M741.066,373.759s-.679.17-.849,1.358-.509,4.754-.509,4.754l.424,2.122s1.189-.934,1.613-.509l-.255-1.273.255-.764-.764-3.311Z" transform="translate(-703.638 -353.741)" fill="#b3edb9"/>
    <path id="Path_68475" data-name="Path 68475" d="M758.715,334.38s-.16,0-.16.594-1.613,1.443-1.613,1.443a1.823,1.823,0,0,0-.17.934,14.615,14.615,0,0,0,.17,2.8c.17.509.424,2.207.509,2.377a1.656,1.656,0,0,1-.085,1.1c-.17.17.424,1.189.594,1.273s-.594,2.292-.17,2.377,1.189-1.019,1.443-1.613.085-8.829,0-9.423A15.373,15.373,0,0,0,758.715,334.38Z" transform="translate(-719.599 -316.908)" fill="#575a89"/>
    <path id="Path_68476" data-name="Path 68476" d="M811.418,323.224s-.064-.388.361-.048a1.52,1.52,0,0,1,.509.594s2.207,0,2.292.255a21.574,21.574,0,0,1-.051,2.422l1.116,4.148s1.567,4.806,1.737,4.976-1.358-.764-2.207-.085-2.377,1.019-2.547.594-2.037-10.272-2.037-10.272,0-1.613.255-1.783A2.864,2.864,0,0,0,811.418,323.224Z" transform="translate(-769.936 -306.298)" fill="#575a89"/>
    <path id="Path_68477" data-name="Path 68477" d="M887.147,449.892l-.34,3.905-.085.34,1.273,1.7a4.136,4.136,0,0,0,.17-1.273c-.085-.34.424-4.16.424-4.16Z" transform="translate(-841.144 -424.95)" fill="#ffb9b9"/>
    <path id="Path_68478" data-name="Path 68478" d="M776.5,262.918s-.412-1.072.186-1.423l.165.474s1.505-.907,1.9-.7l-.371.495s1.753,0,1.877.681l-.619.021a1.576,1.576,0,0,1,.681,1.134l-1.32.082.639.371s-2.392.33-2.97-.619Z" transform="translate(-737.922 -248.497)" fill="#2f2e41"/>
    <path id="Path_68479" data-name="Path 68479" d="M772.982,279.091s.475.951,1.109.713,0-1.109,0-1.109l-.423-.211Z" transform="translate(-734.76 -264.627)" fill="#2f2e41"/>
    <rect id="Rectangle_6351" data-name="Rectangle 6351" width="18.497" height="0.065" transform="translate(34.989 48.41)"/>
    <path id="Path_68480" data-name="Path 68480" d="M869.658,340.943a1.331,1.331,0,0,1,.849.679c.34.594,2.037,4.5,2.122,4.669s.085,2.462.085,2.462-1.189-.679-1.7-.255l-.085-1.019-1.1-3.905-.17-1.273Z" transform="translate(-825.184 -323.047)" fill="#b3edb9"/>
  </g>
</svg>
